<svg xmlns="http://www.w3.org/2000/svg" width="264" height="48"><path fill="#00070b" fill-rule="evenodd" d="m217.056 14.919-.922 4.747h-5.597l-2.906 13.818a61 61 0 0 0-.566 2.905q-.213 1.276-.213 1.984 0 1.417 1.027 1.771 1.027.355 3.862.355l-1.063 4.889q-.497.141-1.523.212-1.028.071-2.268.177a44 44 0 0 1-2.55.142q-1.312.035-2.303.036a24 24 0 0 1-3.472-.248q-1.701-.248-3.047-.992-1.347-.743-2.161-2.162-.815-1.416-.815-3.826 0-.85.106-2.126t.461-2.834l2.976-14.101h-5.527l.992-4.747q2.62-.567 4.605-1.276a18 18 0 0 0 3.65-1.771 18 18 0 0 0 3.188-2.622q1.524-1.557 3.295-3.826h7.299l-2.055 9.495zm-30.907-4.393a7.7 7.7 0 0 1-2.515 1.275q-1.418.426-2.905.425-2.835 0-4.748-1.346-1.913-1.345-1.913-4.251 0-1.558.638-2.799a5.85 5.85 0 0 1 1.736-2.055q1.098-.815 2.551-1.24a10.6 10.6 0 0 1 3.011-.425q2.763 0 4.677 1.346t1.913 4.181q0 1.63-.673 2.834a6.7 6.7 0 0 1-1.772 2.055m-5.987 34.862h-14.384l6.448-30.469h14.526zm-16.11 0h-15.447l-6.235-19.77-4.181 19.77h-15.305L132.45.393h15.376l-4.181 19.557L161.147.322h8.007l-15.872 17.219zM112.59 27.319q.07-1.204.142-2.126.07-.92.07-2.055 0-2.267-.496-3.224-.497-.956-1.629-.956-1.984 0-3.472 1.948-1.488 1.95-2.445 4.677a32 32 0 0 0-1.417 5.739q-.462 3.013-.461 5.138 0 .78.071 1.594c-.853.544.153 1.052.319 1.523q.248.71.673 1.134.425.425 1.205.425.707 0 1.63-.425.92-.424 1.771-1.311.85-.885 1.63-2.303.779-1.416 1.204-3.401h10.133l-2.055 9.991a29 29 0 0 1-6.271 1.736q-3.295.532-7.475.532-3.685 0-6.767-.744t-5.35-2.374-3.543-4.216-1.275-6.271q0-3.827 1.311-7.121t3.968-5.775 6.766-3.897q4.11-1.418 9.779-1.418 4.605 0 8.007.744 3.4.745 5.598 3.366l-1.984 9.07zM81.709 41.42q-5.385 4.535-15.589 4.535-8.715 0-12.471-3.331-4.038-3.471-4.038-10.416 0-4.605 1.877-8.361 1.877-3.754 5.421-6.236 5.172-3.47 14.171-3.472 8.432 0 12.259 2.976 4.039 3.119 4.039 10.346 0 4.464-1.488 8.042-1.488 3.579-4.181 5.917m-9.105-21.435q-.39-1.027-1.665-1.027-1.914 0-3.295 2.055t-2.232 4.889a37 37 0 0 0-1.24 5.81q-.39 2.976-.39 4.819 0 4.606 2.48 4.605 1.77 0 3.082-1.984 1.31-1.983 2.091-4.853a44 44 0 0 0 1.169-5.953q.39-3.081.39-5.349 0-1.983-.39-3.012M41.258 36.743q-3.048 3.898-7.972 6.271-4.925 2.374-12.152 2.374H.798L10.364.393h19.06q4.394 0 7.688.886 3.295.886 5.457 2.94 2.16 2.056 3.259 5.386t1.098 8.148q0 5.174-1.311 10.133-1.312 4.961-4.357 8.857M31.231 6.451q-.886-1.24-3.082-1.24h-3.401l-7.582 35.217h3.047q2.338 0 4.145-1.949 1.806-1.948 3.118-4.96 1.31-3.01 2.196-6.661a87 87 0 0 0 1.418-7.05 99 99 0 0 0 .779-6.094q.248-2.691.248-3.826 0-2.196-.886-3.437"/><path fill="#000307" fill-rule="evenodd" d="M263.702 39.147v7.927h-18.496v-2.642h-36.991v-5.285"/></svg>