<svg xmlns="http://www.w3.org/2000/svg" width="55" height="57"><path fill="#00070b" fill-rule="evenodd" d="M21.134 45.388q7.226 0 12.152-2.374 4.924-2.373 7.972-6.271 3.045-3.896 4.357-8.857a39.5 39.5 0 0 0 1.311-10.133q0-4.817-1.098-8.148-1.1-3.33-3.259-5.386-2.162-2.054-5.457-2.94-3.294-.885-7.688-.886h-19.06L.798 45.388zm-3.968-4.96 7.582-35.217h3.401q2.196 0 3.082 1.24t.886 3.437q0 1.135-.248 3.826a99 99 0 0 1-.779 6.094 87 87 0 0 1-1.418 7.05q-.887 3.65-2.196 6.661-1.312 3.012-3.118 4.96-1.807 1.95-4.145 1.949z"/><path fill="#000307" fill-rule="evenodd" d="M55.015 50.993v6.016h-18.34v-2.005H-.004v-4.011"/></svg>